<?xml version="1.0" encoding="utf-8"?>
<!-- Generator: Adobe Illustrator 24.2.1, SVG Export Plug-In . SVG Version: 6.00 Build 0)  -->
<svg version="1.1" id="Layer_1" xmlns="http://www.w3.org/2000/svg" xmlns:xlink="http://www.w3.org/1999/xlink" x="0px" y="0px"
	 viewBox="0 0 1080 1080" style="enable-background:new 0 0 1080 1080;" xml:space="preserve">
<style type="text/css">
	.st0{fill-rule:evenodd;clip-rule:evenodd;fill:#22B6C6;}
	.st1{fill-rule:evenodd;clip-rule:evenodd;fill:#59C8DE;}
	.st2{fill-rule:evenodd;clip-rule:evenodd;fill:#0679BC;}
	.st3{fill-rule:evenodd;clip-rule:evenodd;fill:#046193;}
</style>
<g>
	<path class="st0" d="M233.39,17.65H977.6l-520.4,520.4l524.31,524.31H233.39c-74.19,0-134.89-60.7-134.89-134.89V152.54
		C98.5,78.35,159.2,17.65,233.39,17.65z"/>
	<polygon class="st1" points="903.08,17.65 977.6,17.65 457.2,538.04 605.81,686.66 507.67,803.52 227.19,768.98 	"/>
	<path class="st2" d="M457.2,538.04l524.31,524.31H233.39c-31.88,0-61.25-11.22-84.4-29.87c-12.19-19.5-22.51-44.66-25.82-76.15
		C111.64,846.43,382.75,615.44,457.2,538.04z"/>
	<path class="st3" d="M457.2,538.04l71.55,71.55c-107.44,77.39-261.26,191.83-320.6,253.91c-94.71,99.07-44.05,179.05-43.52,179.86
		c-5.48-3.27-10.71-6.9-15.65-10.89c-12.19-19.5-22.51-44.66-25.82-76.15C111.64,846.43,382.75,615.44,457.2,538.04z"/>
</g>
</svg>
