<?xml version="1.0" encoding="utf-8"?>
<!-- Generator: Adobe Illustrator 24.2.1, SVG Export Plug-In . SVG Version: 6.00 Build 0)  -->
<svg version="1.1" id="Layer_1" xmlns="http://www.w3.org/2000/svg" xmlns:xlink="http://www.w3.org/1999/xlink" x="0px" y="0px"
	 viewBox="0 0 982.47 302.35" style="enable-background:new 0 0 982.47 302.35;" xml:space="preserve">
<style type="text/css">
	.st0{fill-rule:evenodd;clip-rule:evenodd;fill:#22B6C6;}
	.st1{fill-rule:evenodd;clip-rule:evenodd;fill:#59C8DE;}
	.st2{fill-rule:evenodd;clip-rule:evenodd;fill:#0679BC;}
	.st3{fill-rule:evenodd;clip-rule:evenodd;fill:#046193;}
	.st4{opacity:0.8;}
	.st5{fill:#59C8DD;}
	.st6{fill:#22B6C6;}
	.st7{fill:#0679BC;}
</style>
<g>
	<path class="st0" d="M792.47,29.99h183.12L847.54,158.04l129.01,129.01H792.47c-18.26,0-33.19-14.94-33.19-33.19V63.18
		C759.28,44.93,774.21,29.99,792.47,29.99z"/>
	<polygon class="st1" points="957.26,29.99 975.59,29.99 847.54,158.04 884.11,194.61 859.96,223.37 790.94,214.87 	"/>
	<path class="st2" d="M847.54,158.04l129.01,129.01H792.47c-7.84,0-15.07-2.76-20.77-7.35c-3-4.8-5.54-10.99-6.35-18.74
		C762.51,233.93,829.22,177.09,847.54,158.04z"/>
	<path class="st3" d="M847.54,158.04l17.61,17.61c-26.44,19.04-64.29,47.2-78.89,62.48c-23.3,24.38-10.84,44.06-10.71,44.26
		c-1.35-0.8-2.64-1.7-3.85-2.68c-3-4.8-5.54-10.99-6.35-18.74C762.51,233.93,829.22,177.09,847.54,158.04z"/>
</g>
<g>
	<g class="st4">
		<path class="st5" d="M35.69,189.93c-1.32-6.47-2.73-17.15-3.14-23.74l-4.9-78.94c-0.41-6.59,4.1-14.36,10.02-17.28l10.28-5.07
			c5.92-2.92,10.97,0.09,11.22,6.69l3.36,89.11c0.25,6.6,1.32,17.32,2.39,23.83c0,0,0.77,4.73,4.99,8.02
			c4.21,3.3,13.38,4.01,13.38,4.01c6.58,0.51,12.58,0.93,13.33,0.93c0.75,0,1.37,5.4,1.37,12v11.01c0,6.6-0.62,12-1.37,12
			c-0.75,0-6.73-0.64-13.28-1.43c0,0-23.86-2.86-33.6-11.44C40,211.07,35.69,189.93,35.69,189.93z"/>
		<path class="st5" d="M96.47,232.51c-0.84,0-1.52-5.4-1.52-12V209.5c0-6.6,0.68-12,1.52-12c0.84,0,6.91-0.39,13.49-0.88
			c0,0,11.93-0.87,19.54-4.37c7.61-3.5,7.61-3.5,7.61-3.5c2.09-5.99,3.81-11.19,3.81-11.57s-0.6-6.05-1.33-12.61l-0.69-6.13
			c-0.73-6.56,3.59-14.14,9.61-16.85l8.25-3.71c6.02-2.71,11.49,0.45,12.15,7.02l0.63,6.26c0.66,6.57,2.5,17.18,4.08,23.59
			c0,0,1.89,7.66,8.08,13.69c6.19,6.04,12.52,7.09,12.52,7.09c6.51,1.08,12.52,1.97,13.36,1.97s1.52,5.4,1.52,12v11.01
			c0,6.6-0.68,12-1.52,12s-6.89-0.57-13.45-1.28c0,0-6.59-0.7-15.62-4.66c-9.03-3.96-12.78-7.4-12.78-7.4
			c-4.86-4.47-13.12-4.83-18.35-0.81c0,0-5.38,4.13-16.28,8.14c-10.91,4.01-21.16,4.93-21.16,4.93
			C103.37,232.02,97.3,232.51,96.47,232.51z M115.46,274.33c-4.67-4.67-4.65-12.29,0.03-16.94l4.89-4.86
			c4.68-4.65,12.35-4.65,17.03,0l4.89,4.86c4.68,4.65,4.7,12.27,0.03,16.94l-4.95,4.95c-4.67,4.67-12.3,4.67-16.97,0L115.46,274.33z
			 M154.57,274.33c-4.67-4.67-4.65-12.29,0.03-16.94l4.89-4.86c4.68-4.65,12.33-4.64,17,0.03l4.8,4.8c4.67,4.67,4.68,12.32,0.03,17
			l-4.86,4.89c-4.65,4.68-12.27,4.7-16.94,0.03L154.57,274.33z"/>
		<path class="st5" d="M306.79,79.91c-0.57,6.58-6.33,12.97-12.82,14.21l-27.27,5.23c-6.48,1.24-7.37,5.36-1.97,9.16
			c0,0,22.91,16.11,33.26,30.16c10.35,14.06,15.53,28.24,15.53,42.54c0,16.24-9.23,28.84-27.7,37.83
			c-18.47,8.98-64.9,12.55-64.9,12.55c-6.58,0.51-12.62,0.92-13.41,0.92s-1.45-5.4-1.45-12V209.5c0-6.6,0.65-12,1.45-12
			s6.84-0.26,13.43-0.58c0,0,23.35-1.12,39.54-4.52c16.18-3.4,24.28-6.77,24.28-10.12c0-7.81-6.47-17.86-19.41-30.14
			c-12.94-12.28-34.14-24.57-34.14-24.57c-5.71-3.31-9.52-11.35-8.47-17.87l3.48-21.51c1.05-6.52,7.16-13.13,13.57-14.7l57.36-14.07
			c6.41-1.57,11.19,2.52,10.62,9.1L306.79,79.91z"/>
		<path class="st5" d="M358.1,279c-7.9,0-11.31-0.51-11.31-0.51c-6.53-0.97-12.28-7.15-12.79-13.73l-0.17-2.27
			c-0.51-6.58,3.86-11.45,9.7-10.83c0,0,0,0,5.88,0c10.92,0,20.39-2.04,28.41-6.11c8.02-4.08,9.79-6.97,9.79-6.97
			c3.45-5.63,1.04-8.89-5.35-7.24c0,0-3.08,0.79-11.56,0.79c-13.19,0-23.48-3.95-30.86-11.84c-7.39-7.89-11.09-18.9-11.09-33.01
			c0-10.75,2.06-20.98,6.17-30.68c4.11-9.7,9.64-17.51,16.57-23.43c6.93-5.92,14.25-8.88,21.98-8.88c14.02,0,25.4,6.47,34.14,19.4
			c8.73,12.93,13.1,29.65,13.1,50.14c0,26.79-5.48,47.68-16.44,62.67C393.31,271.5,377.92,279,358.1,279z M373.34,202.78
			c6.8,0,12.2-1.13,16.19-3.4c3.99-2.27,5.98-5.33,5.98-9.2c0-9.66-2.37-18.03-7.12-25.13c-4.75-7.1-10.35-10.65-16.82-10.65
			c-4.62,0-9.09,3.44-13.42,10.33c-4.33,6.89-6.49,14.03-6.49,21.42c0,5.38,1.87,9.49,5.61,12.35
			C361.02,201.35,366.37,202.78,373.34,202.78z"/>
		<path class="st5" d="M423.58,267.9c-0.63-6.57,3.95-11.26,10.17-10.42c0,0,0,0,6.5,0c16.95,0,30.04-4.16,39.27-12.48
			c9.23-8.32,13.85-20.04,13.85-35.16c0-11.26-15.25-50.17-15.25-50.17c-2.41-6.14-0.28-14.68,4.74-18.97l9-7.69
			c5.02-4.29,11.04-2.75,13.38,3.42c0,0,8.28,21.84,11.42,34.67c3.14,12.84,4.72,25.4,4.72,37.67c0,25.57-6.47,45.61-19.41,60.13
			c-12.94,14.51-30.82,21.77-53.66,21.77c-7.31,0-11.03-0.69-11.03-0.69c-6.49-1.21-12.31-7.57-12.94-14.14L423.58,267.9z"/>
		<path class="st5" d="M553,189.93c-1.32-6.47-2.73-17.15-3.14-23.74l-4.91-78.94c-0.41-6.59,4.1-14.36,10.02-17.28l10.29-5.07
			c5.92-2.92,10.97,0.09,11.22,6.69l3.36,89.11c0.25,6.6,1.32,17.32,2.39,23.83c0,0,0.77,4.73,4.99,8.02
			c4.21,3.3,13.38,4.01,13.38,4.01c6.58,0.51,12.58,0.93,13.33,0.93s1.37,5.4,1.37,12v11.01c0,6.6-0.62,12-1.37,12
			s-6.73-0.64-13.28-1.43c0,0-23.86-2.86-33.6-11.44C557.3,211.07,553,189.93,553,189.93z"/>
		<path class="st5" d="M712.98,79.91c-0.57,6.58-6.33,12.97-12.82,14.21l-27.27,5.23c-6.48,1.24-7.37,5.36-1.97,9.16
			c0,0,22.91,16.11,33.26,30.16c10.35,14.06,15.53,28.24,15.53,42.54c0,16.24-9.24,28.84-27.7,37.83
			c-18.47,8.98-64.9,12.55-64.9,12.55c-6.58,0.51-12.62,0.92-13.41,0.92s-1.45-5.4-1.45-12V209.5c0-6.6,0.65-12,1.45-12
			s6.84-0.26,13.43-0.58c0,0,23.35-1.12,39.54-4.52c16.18-3.4,24.28-6.77,24.28-10.12c0-7.81-6.47-17.86-19.41-30.14
			c-12.94-12.28-34.14-24.57-34.14-24.57c-5.71-3.31-9.52-11.35-8.47-17.87l3.48-21.51c1.05-6.52,7.16-13.13,13.57-14.7l57.36-14.07
			c6.41-1.57,11.19,2.52,10.62,9.1L712.98,79.91z"/>
	</g>
	<g>
		<g>
			<path class="st6" d="M31.69,184.93c-1.32-6.47-2.73-17.15-3.14-23.74l-4.9-78.94c-0.41-6.59,4.1-14.36,10.02-17.28l10.28-5.07
				c5.92-2.92,10.97,0.09,11.22,6.69l3.36,89.11c0.25,6.6,1.32,17.32,2.39,23.83c0,0,0.77,4.73,4.99,8.02
				c4.21,3.3,13.38,4.01,13.38,4.01c6.58,0.51,12.58,0.93,13.33,0.93c0.75,0,1.37,5.4,1.37,12v11.01c0,6.6-0.62,12-1.37,12
				c-0.75,0-6.73-0.64-13.28-1.43c0,0-23.86-2.86-33.6-11.44C36,206.07,31.69,184.93,31.69,184.93z"/>
			<path class="st6" d="M92.47,227.51c-0.84,0-1.52-5.4-1.52-12V204.5c0-6.6,0.68-12,1.52-12c0.84,0,6.91-0.39,13.49-0.88
				c0,0,11.93-0.87,19.54-4.37c7.61-3.5,7.61-3.5,7.61-3.5c2.09-5.99,3.81-11.19,3.81-11.57s-0.6-6.05-1.33-12.61l-0.69-6.13
				c-0.73-6.56,3.59-14.14,9.61-16.85l8.25-3.71c6.02-2.71,11.49,0.45,12.15,7.02l0.63,6.26c0.66,6.57,2.5,17.18,4.08,23.59
				c0,0,1.89,7.66,8.08,13.69c6.19,6.04,12.52,7.09,12.52,7.09c6.51,1.08,12.52,1.97,13.36,1.97s1.52,5.4,1.52,12v11.01
				c0,6.6-0.68,12-1.52,12s-6.89-0.57-13.45-1.28c0,0-6.59-0.7-15.62-4.66c-9.03-3.96-12.78-7.4-12.78-7.4
				c-4.86-4.47-13.12-4.83-18.35-0.81c0,0-5.38,4.13-16.28,8.14c-10.91,4.01-21.16,4.93-21.16,4.93
				C99.37,227.02,93.3,227.51,92.47,227.51z M111.46,269.33c-4.67-4.67-4.65-12.29,0.03-16.94l4.89-4.86
				c4.68-4.65,12.35-4.65,17.03,0l4.89,4.86c4.68,4.65,4.7,12.27,0.03,16.94l-4.95,4.95c-4.67,4.67-12.3,4.67-16.97,0L111.46,269.33
				z M150.57,269.33c-4.67-4.67-4.65-12.29,0.03-16.94l4.89-4.86c4.68-4.65,12.33-4.64,17,0.03l4.8,4.8
				c4.67,4.67,4.68,12.32,0.03,17l-4.86,4.89c-4.65,4.68-12.27,4.7-16.94,0.03L150.57,269.33z"/>
			<path class="st6" d="M302.79,74.91c-0.57,6.58-6.33,12.97-12.82,14.21l-27.27,5.23c-6.48,1.24-7.37,5.36-1.97,9.16
				c0,0,22.91,16.11,33.26,30.16c10.35,14.06,15.53,28.24,15.53,42.54c0,16.24-9.23,28.84-27.7,37.83
				c-18.47,8.98-64.9,12.55-64.9,12.55c-6.58,0.51-12.62,0.92-13.41,0.92s-1.45-5.4-1.45-12V204.5c0-6.6,0.65-12,1.45-12
				s6.84-0.26,13.43-0.58c0,0,23.35-1.12,39.54-4.52c16.18-3.4,24.28-6.77,24.28-10.12c0-7.81-6.47-17.86-19.41-30.14
				c-12.94-12.28-34.14-24.57-34.14-24.57c-5.71-3.31-9.52-11.35-8.47-17.87l3.48-21.51c1.05-6.52,7.16-13.13,13.57-14.7
				l57.36-14.07c6.41-1.57,11.19,2.52,10.62,9.1L302.79,74.91z"/>
			<path class="st7" d="M354.1,274c-7.9,0-11.31-0.51-11.31-0.51c-6.53-0.97-12.28-7.15-12.79-13.73l-0.17-2.27
				c-0.51-6.58,3.86-11.45,9.7-10.83c0,0,0,0,5.88,0c10.92,0,20.39-2.04,28.41-6.11c8.02-4.08,9.79-6.97,9.79-6.97
				c3.45-5.63,1.04-8.89-5.35-7.24c0,0-3.08,0.79-11.56,0.79c-13.19,0-23.48-3.95-30.86-11.84c-7.39-7.89-11.09-18.9-11.09-33.01
				c0-10.75,2.06-20.98,6.17-30.68c4.11-9.7,9.64-17.51,16.57-23.43c6.93-5.92,14.25-8.88,21.98-8.88c14.02,0,25.4,6.47,34.14,19.4
				c8.73,12.93,13.1,29.65,13.1,50.14c0,26.79-5.48,47.68-16.44,62.67C389.31,266.5,373.92,274,354.1,274z M369.34,197.78
				c6.8,0,12.2-1.13,16.19-3.4c3.99-2.27,5.98-5.33,5.98-9.2c0-9.66-2.37-18.03-7.12-25.13c-4.75-7.1-10.35-10.65-16.82-10.65
				c-4.62,0-9.09,3.44-13.42,10.33c-4.33,6.89-6.49,14.03-6.49,21.42c0,5.38,1.87,9.49,5.61,12.35
				C357.02,196.35,362.37,197.78,369.34,197.78z"/>
			<path class="st6" d="M419.58,262.9c-0.63-6.57,3.95-11.26,10.17-10.42c0,0,0,0,6.5,0c16.95,0,30.04-4.16,39.27-12.48
				c9.23-8.32,13.85-20.04,13.85-35.16c0-11.26-15.25-50.17-15.25-50.17c-2.41-6.14-0.28-14.68,4.74-18.97l9-7.69
				c5.02-4.29,11.04-2.75,13.38,3.42c0,0,8.28,21.84,11.42,34.67c3.14,12.84,4.72,25.4,4.72,37.67c0,25.57-6.47,45.61-19.41,60.13
				c-12.94,14.51-30.82,21.77-53.66,21.77c-7.31,0-11.03-0.69-11.03-0.69c-6.49-1.21-12.31-7.57-12.94-14.14L419.58,262.9z"/>
			<path class="st6" d="M549,184.93c-1.32-6.47-2.73-17.15-3.14-23.74l-4.91-78.94c-0.41-6.59,4.1-14.36,10.02-17.28l10.29-5.07
				c5.92-2.92,10.97,0.09,11.22,6.69l3.36,89.11c0.25,6.6,1.32,17.32,2.39,23.83c0,0,0.77,4.73,4.99,8.02
				c4.21,3.3,13.38,4.01,13.38,4.01c6.58,0.51,12.58,0.93,13.33,0.93s1.37,5.4,1.37,12v11.01c0,6.6-0.62,12-1.37,12
				s-6.73-0.64-13.28-1.43c0,0-23.86-2.86-33.6-11.44C553.3,206.07,549,184.93,549,184.93z"/>
			<path class="st6" d="M708.98,74.91c-0.57,6.58-6.33,12.97-12.82,14.21l-27.27,5.23c-6.48,1.24-7.37,5.36-1.97,9.16
				c0,0,22.91,16.11,33.26,30.16c10.35,14.06,15.53,28.24,15.53,42.54c0,16.24-9.24,28.84-27.7,37.83
				c-18.47,8.98-64.9,12.55-64.9,12.55c-6.58,0.51-12.62,0.92-13.41,0.92s-1.45-5.4-1.45-12V204.5c0-6.6,0.65-12,1.45-12
				s6.84-0.26,13.43-0.58c0,0,23.35-1.12,39.54-4.52c16.18-3.4,24.28-6.77,24.28-10.12c0-7.81-6.47-17.86-19.41-30.14
				c-12.94-12.28-34.14-24.57-34.14-24.57c-5.71-3.31-9.52-11.35-8.47-17.87l3.48-21.51c1.05-6.52,7.16-13.13,13.57-14.7
				l57.36-14.07c6.41-1.57,11.19,2.52,10.62,9.1L708.98,74.91z"/>
		</g>
	</g>
</g>
</svg>
